<?xml version="1.0" standalone="no"?>
<!DOCTYPE svg PUBLIC "-//W3C//DTD SVG 20010904//EN"
 "http://www.w3.org/TR/2001/REC-SVG-20010904/DTD/svg10.dtd">
<svg version="1.0" xmlns="http://www.w3.org/2000/svg"
 width="260.000000pt" height="260.000000pt" viewBox="0 0 260.000000 260.000000"
 preserveAspectRatio="xMidYMid meet">
<metadata>
Created by potrace 1.11, written by Peter Selinger 2001-2013
</metadata>
<g transform="translate(0.000000,260.000000) scale(0.100000,-0.100000)"
fill="#000000" stroke="none">
<path d="M0 1300 l0 -1300 1300 0 1300 0 0 1300 0 1300 -1300 0 -1300 0 0
-1300z m1760 650 c93 -15 159 -51 223 -120 76 -82 101 -148 101 -265 0 -70 -5
-103 -23 -148 -44 -110 -160 -208 -282 -236 -25 -6 -190 -11 -378 -11 -367 0
-371 1 -371 60 0 54 4 55 389 60 l356 5 50 27 c101 53 147 128 148 238 0 91
-17 144 -65 196 -61 66 -119 84 -273 84 -112 0 -127 2 -145 20 -25 25 -25 42
-2 69 14 17 31 21 92 24 41 2 84 4 95 5 11 1 49 -3 85 -8z m-496 -22 c14 -19
16 -65 16 -295 0 -260 -1 -274 -20 -293 -24 -24 -49 -25 -76 -6 -16 12 -20 31
-24 138 -4 110 -7 123 -23 123 -14 0 -70 -97 -227 -390 -116 -214 -210 -398
-210 -407 0 -16 12 -18 110 -18 97 0 112 -2 130 -20 25 -25 25 -55 0 -80 -18
-18 -33 -20 -188 -20 -185 0 -212 7 -212 57 0 46 575 1142 638 1216 21 24 67
22 86 -5z m166 2 c7 -12 9 -118 8 -302 l-3 -282 -26 -15 c-24 -13 -29 -13 -53
2 l-26 17 0 288 c0 211 3 291 12 300 20 20 76 15 88 -8z m582 -800 c76 -81 96
-180 58 -282 -27 -73 -70 -122 -138 -155 l-57 -28 -337 -3 c-329 -3 -337 -3
-357 17 -20 20 -21 32 -21 216 0 182 1 196 20 215 11 11 29 20 40 20 11 0 29
-9 40 -20 18 -18 20 -33 20 -176 l0 -155 23 3 c22 3 22 6 25 158 2 125 6 157
19 172 20 22 51 23 75 1 16 -14 18 -34 18 -168 0 -104 4 -155 12 -163 16 -16
347 -16 403 -1 84 24 140 121 115 203 -7 24 -30 58 -56 84 -47 46 -54 74 -27
105 28 30 70 15 125 -43z"/>
</g>
</svg>
